<svg xmlns="http://www.w3.org/2000/svg" width="57.52" height="20.98" viewBox="0 0 57.52 20.98"><defs><style>.cls-1{fill:#ff8c00;fill-rule:evenodd;}</style></defs><g id="Слой_2" data-name="Слой 2"><g id="Слой_1-2" data-name="Слой 1"><path class="cls-1" d="M14.07,18.39A8.7,8.7,0,0,1,20,20.91c.21.19.5-.05.31-.28a9.06,9.06,0,0,0-6-3.6,6.51,6.51,0,0,1-4.47-3.34c-.17-.29-.24-.24-.26.14a8.41,8.41,0,0,0,.12,1.66H9.35a6.17,6.17,0,1,1,6.18-6.17,5.79,5.79,0,0,1,0,.72,9.59,9.59,0,0,0-2,0c-.24,0-.21.13,0,.16a4.32,4.32,0,0,1,3.77,3.93.06.06,0,0,0,.1,0,9.35,9.35,0,1,0-8,4.54C10.72,18.66,12.08,18.39,14.07,18.39Zm.7-3.38c.41.35.54.76.32,1.06a.68.68,0,0,1-.56.25,1,1,0,0,1-.64-.23.91.91,0,0,1-.24-1.17.56.56,0,0,1,.44-.18A1.05,1.05,0,0,1,14.77,15Zm1.92-.89c.06.4-.07.57-.2.57s-.32-.16-.53-.49a1,1,0,0,1-.18-.88.29.29,0,0,1,.39-.11C16.51,13.34,16.65,13.87,16.69,14.12Zm13-2.14-1.07-1.3a.2.2,0,0,1,0-.29.24.24,0,0,1,.14-.05H31a3.1,3.1,0,0,0,.17-1,2.87,2.87,0,1,0-5.74,0,2.91,2.91,0,0,0,2.87,3A2.81,2.81,0,0,0,29.64,12Zm4.88,2.18a.21.21,0,0,1-.16.34H31.9a.3.3,0,0,1-.25-.12l-.42-.5a5.42,5.42,0,1,1,2.48-4.55,5.36,5.36,0,0,1-.86,2.93Zm22.73-10h-2a.27.27,0,0,0-.27.27v9.81a.27.27,0,0,0,.27.26h2a.27.27,0,0,0,.27-.26V4.43a.27.27,0,0,0-.27-.27Zm-3.38,0H51.62a.27.27,0,0,0-.25.19l-1.78,5.79-2-5.8a.27.27,0,0,0-.26-.18H45.82a.27.27,0,0,0-.26.18l-2,5.8L41.83,4.35a.26.26,0,0,0-.26-.19H39.33a.27.27,0,0,0-.22.11.29.29,0,0,0,0,.24l3.3,9.81a.27.27,0,0,0,.26.18h1.78a.25.25,0,0,0,.25-.18L46.6,8.59l1.93,5.73a.27.27,0,0,0,.26.18h1.78a.25.25,0,0,0,.25-.18l3.3-9.81a.26.26,0,0,0,0-.24.27.27,0,0,0-.22-.11Zm-15.65.27v9.81a.26.26,0,0,1-.26.26H36a.27.27,0,0,1-.27-.26V4.43A.27.27,0,0,1,36,4.16h2a.27.27,0,0,1,.26.27Z"/></g></g></svg>