<?xml version="1.0" encoding="UTF-8"?><svg id="_Слой_2" xmlns="http://www.w3.org/2000/svg" width="67.18" height="19.8" viewBox="0 0 67.18 19.8"><defs><style>.cls-1{fill:#ffdd2d;}.cls-2,.cls-3{fill:#333;}.cls-3{fill-rule:evenodd;}</style></defs><g id="_Слой_1-2"><g><path class="cls-2" d="M33.45,8.28c-.46-.18-1.07-.23-1.73-.23h-3.67v-1.14h6.31v-1.96h-8.9V13.44h6.03c.84,0,1.46-.07,1.93-.25,.98-.37,1.64-1.28,1.64-2.48s-.62-2.05-1.6-2.43Zm-1.28,2.94c-.14,.05-.34,.07-.59,.07h-3.53v-1.36h3.53c.29,0,.52,.02,.7,.11,.21,.11,.32,.3,.32,.55s-.12,.52-.43,.62Z"/><path class="cls-2" d="M42.3,4.95h-3.78l-3.48,8.49h2.92l.48-1.23h3.92l.5,1.23h2.91l-3.48-8.49Zm-3.21,5.39l1.23-3.42h.2l1.23,3.42h-2.66Z"/><path class="cls-2" d="M49.11,10.28v3.16h-2.59V4.95h2.59v3.1h4.15v-3.1h2.59V13.44h-2.59v-3.16h-4.15Z"/><path class="cls-2" d="M59.94,10.23v3.21h-2.59V4.95h2.59v3.19h.71l3.12-3.19h3.25l-4.14,4.07,4.3,4.42h-3.44l-3.08-3.21h-.71Z"/><path class="cls-1" d="M0,0H20.51V9.61c0,2.64-1.41,5.09-3.7,6.41l-6.55,3.78-6.55-3.78C1.41,14.69,0,12.25,0,9.61V0Z"/><path class="cls-3" d="M5.66,4.95v3.19c.44-.49,1.23-.83,2.13-.83h.98v3.71c0,.99-.27,1.95-.67,2.43h4.28c-.4-.48-.66-1.44-.66-2.42v-3.71h.98c.91,0,1.7,.33,2.13,.83v-3.19H5.66Z"/></g></g></svg>